<?xml version="1.0" encoding="utf-8"?>
<!-- Generator: Adobe Illustrator 26.5.0, SVG Export Plug-In . SVG Version: 6.00 Build 0)  -->
<svg version="1.1" id="Layer_1" xmlns="http://www.w3.org/2000/svg" xmlns:xlink="http://www.w3.org/1999/xlink" x="0px" y="0px"
	 viewBox="0 0 668 413" style="enable-background:new 0 0 668 413;" xml:space="preserve">
<style type="text/css">
	.st0{display:none;fill:#808E38;}
	.st1{display:none;}
	.st2{display:inline;}
	.st3{fill:#FFFFFF;}
	.st4{display:inline;fill:#FFFFFF;}
	.st5{fill:#8E8733;}
</style>
<rect x="0.1" y="0" class="st0" width="667.8" height="413"/>
<g class="st1">
	<g class="st2">
		<path class="st3" d="M39.4,33.5l3.8-0.6v4h4.6v3.2h-4.6v4.7c0,0.8,0.1,1.4,0.4,1.9s0.8,0.7,1.7,0.7c0.4,0,0.8,0,1.3-0.1
			c0.4-0.1,0.8-0.2,1.2-0.3l0.5,3c-0.5,0.2-1,0.3-1.5,0.5c-0.6,0.1-1.3,0.2-2.1,0.2c-1,0-1.9-0.1-2.6-0.4s-1.2-0.7-1.6-1.2
			c-0.4-0.5-0.7-1.1-0.9-1.8s-0.2-1.5-0.2-2.4L39.4,33.5L39.4,33.5z"/>
		<path class="st3" d="M49.4,50.4V31.1l3.8-0.6v6.5c0.3-0.1,0.6-0.2,1-0.2c0.4-0.1,0.8-0.1,1.2-0.1c1.1,0,2,0.2,2.7,0.5
			s1.3,0.7,1.7,1.3c0.4,0.5,0.7,1.2,0.9,2C61,41,61,41.8,61,42.8v7.6h-3.8v-7.2c0-1.2-0.2-2.1-0.5-2.6c-0.3-0.5-0.9-0.8-1.8-0.8
			c-0.3,0-0.7,0-1,0.1s-0.6,0.1-0.8,0.2v10.2C53.2,50.4,49.4,50.4,49.4,50.4z"/>
		<path class="st3" d="M76.6,43.6c0-1,0.2-1.9,0.5-2.8c0.3-0.9,0.8-1.6,1.4-2.3c0.6-0.6,1.3-1.2,2.2-1.5c0.8-0.4,1.8-0.6,2.9-0.6
			c0.7,0,1.4,0.1,2,0.2c0.6,0.1,1.2,0.3,1.7,0.5l-0.8,3c-0.4-0.1-0.8-0.3-1.2-0.4c-0.4-0.1-0.9-0.2-1.4-0.2c-1.1,0-2,0.3-2.5,1
			c-0.6,0.7-0.8,1.6-0.8,2.8c0,1.2,0.3,2.2,0.8,2.8s1.4,1,2.7,1c0.5,0,1,0,1.5-0.1s1-0.2,1.5-0.4l0.5,3.1c-0.4,0.2-1,0.3-1.7,0.5
			c-0.7,0.1-1.4,0.2-2.2,0.2c-1.2,0-2.3-0.2-3.2-0.5s-1.6-0.9-2.2-1.5s-1-1.4-1.3-2.2C76.7,45.6,76.6,44.6,76.6,43.6z"/>
		<path class="st3" d="M88.5,50.4V31.1l3.8-0.6v6.5c0.3-0.1,0.6-0.2,1-0.2c0.4-0.1,0.8-0.1,1.2-0.1c1.1,0,2,0.2,2.7,0.5
			s1.3,0.7,1.7,1.3c0.4,0.5,0.7,1.2,0.9,2s0.3,1.6,0.3,2.5v7.6h-3.8v-7.2c0-1.2-0.2-2.1-0.5-2.6c-0.3-0.5-0.9-0.8-1.8-0.8
			c-0.3,0-0.7,0-1,0.1c-0.3,0.1-0.6,0.1-0.8,0.2v10.2C92.3,50.4,88.5,50.4,88.5,50.4z"/>
		<path class="st3" d="M106.9,36.5c1.1,0,2.1,0.1,2.8,0.4c0.8,0.3,1.3,0.6,1.8,1.1c0.4,0.5,0.8,1.1,1,1.7s0.3,1.4,0.3,2.3V50
			c-0.6,0.1-1.3,0.3-2.3,0.4s-2.2,0.2-3.5,0.2c-0.9,0-1.7-0.1-2.4-0.2c-0.7-0.2-1.3-0.4-1.8-0.8s-0.9-0.8-1.2-1.4
			c-0.3-0.6-0.4-1.3-0.4-2.1c0-0.8,0.2-1.5,0.5-2c0.3-0.5,0.7-1,1.3-1.3c0.5-0.3,1.1-0.6,1.8-0.7s1.4-0.2,2.1-0.2
			c0.5,0,0.9,0,1.3,0.1s0.7,0.1,0.9,0.2v-0.4c0-0.7-0.2-1.2-0.6-1.6c-0.4-0.4-1.1-0.6-2.1-0.6c-0.7,0-1.3,0-1.9,0.1
			s-1.2,0.2-1.6,0.4l-0.5-3.1c0.2-0.1,0.5-0.1,0.8-0.2s0.7-0.2,1.1-0.2c0.4-0.1,0.8-0.1,1.2-0.2C106,36.5,106.5,36.5,106.9,36.5z
			 M107.2,47.7c0.4,0,0.7,0,1.1,0c0.3,0,0.6,0,0.8-0.1v-2.9c-0.2,0-0.4-0.1-0.7-0.1c-0.3,0-0.6,0-0.8,0c-0.4,0-0.7,0-1,0.1
			c-0.3,0-0.6,0.1-0.8,0.2c-0.2,0.1-0.4,0.3-0.6,0.5c-0.1,0.2-0.2,0.5-0.2,0.8c0,0.6,0.2,1,0.6,1.2C106,47.6,106.5,47.7,107.2,47.7z
			"/>
	</g>
	<g class="st2">
		<path class="st3" d="M75.9,42c-0.3,1.4-1,2.7-2,3.7c-0.3,0.3-0.5,0.6-0.8,0.9c-0.7,1.1-1,2.3-0.9,3.5c0,0.2-0.1,0.3-0.3,0.3
			c-1,0-2,0-3,0c-1,0-2,0-2.9,0c-0.3,0-0.4,0-0.3-0.3c0.1-0.8-0.1-1.5-0.3-2.3c-0.3-1-1-1.7-1.7-2.5c-1.6-1.8-2.2-3.9-1.6-6.3
			c0-0.1,0.1-0.2,0.1-0.4c0.5,0.1,0.9,0.3,1.3,0.6c0.7,0.5,1.1,1.2,1.6,1.8c1.1,1.7,2.6,2.6,4.6,2.7c3.2,0.2,5.8-2.3,6-5.3
			c0.1,0.2,0.1,0.3,0.1,0.4C76.1,40,76.1,41,75.9,42z"/>
		<path class="st3" d="M69,51.5c-0.8,0-1.6,0-2.4,0c-0.2,0-0.3,0-0.3,0.2c0,0.4,0,0.8,0,1.3c0,0.4,0.2,0.7,0.6,0.7
			c1.4,0,2.8,0,4.2,0c0.4,0,0.6-0.2,0.6-0.7c0-0.4,0-0.9,0-1.3c0-0.2-0.1-0.2-0.2-0.2C70.7,51.5,69.8,51.5,69,51.5z"/>
		<path class="st3" d="M67.5,54.8c0.3,0.7,0.8,1.1,1.5,1.1c0.7,0,1.2-0.4,1.5-1.1C69.5,54.8,68.5,54.8,67.5,54.8z"/>
	</g>
	<g class="st2">
		<path class="st3" d="M91.7,55.8c-0.6,0-1-0.2-1.3-0.5s-0.4-0.8-0.4-1.3c0-0.3,0.1-0.5,0.1-0.8s0.2-0.4,0.4-0.6
			c0.2-0.2,0.3-0.3,0.6-0.4s0.5-0.1,0.7-0.1c0.2,0,0.3,0,0.4,0s0.2,0,0.3,0.1s0.2,0.1,0.2,0.1c0.1,0,0.1,0,0.1,0.1l-0.2,0.6
			c-0.1-0.1-0.2-0.1-0.4-0.2c-0.1,0-0.3-0.1-0.5-0.1c-0.1,0-0.2,0-0.4,0.1S91.1,53,91,53.1s-0.2,0.2-0.2,0.3
			c-0.1,0.1-0.1,0.3-0.1,0.5c0,0.2,0,0.3,0.1,0.5c0,0.1,0.1,0.3,0.2,0.4c0.1,0.1,0.2,0.2,0.3,0.2s0.3,0.1,0.5,0.1c0.1,0,0.2,0,0.3,0
			c0.1,0,0.2,0,0.2,0s0.1,0,0.2-0.1c0.1,0,0.1,0,0.2-0.1l0.2,0.6c-0.1,0.1-0.3,0.1-0.5,0.2C92.2,55.8,91.9,55.8,91.7,55.8z"/>
		<path class="st3" d="M94.9,53.7c-0.1,0-0.2,0-0.2,0s-0.2,0-0.3,0c-0.1,0-0.1,0-0.2,0s-0.1,0-0.2,0v2h-0.8v-2.5
			c0.1,0,0.3-0.1,0.5-0.1c0.2,0,0.4-0.1,0.6-0.1c0,0,0.1,0,0.2,0c0.1,0,0.1,0,0.2,0c0.1,0,0.1,0,0.2,0c0.1,0,0.1,0,0.2,0L94.9,53.7z
			"/>
		<path class="st3" d="M95.3,54.4c0-0.2,0-0.4,0.1-0.6s0.2-0.3,0.3-0.4c0.1-0.1,0.2-0.2,0.4-0.3c0.2-0.1,0.3-0.1,0.5-0.1
			c0.4,0,0.7,0.1,0.9,0.3s0.3,0.6,0.3,1c0,0,0,0.1,0,0.1s0,0.1,0,0.1h-1.7c0,0.2,0.1,0.3,0.2,0.4c0.1,0.1,0.3,0.1,0.5,0.1
			c0.1,0,0.3,0,0.4,0c0.1,0,0.2-0.1,0.3-0.1l0.1,0.6c0,0-0.1,0-0.2,0.1c-0.1,0-0.1,0-0.2,0c-0.1,0-0.2,0-0.3,0s-0.2,0-0.3,0
			c-0.2,0-0.4,0-0.6-0.1s-0.3-0.2-0.4-0.3s-0.2-0.3-0.3-0.4C95.3,54.8,95.3,54.6,95.3,54.4z M97.1,54.1c0-0.1,0-0.1,0-0.2
			S97,53.8,97,53.8c0,0-0.1-0.1-0.2-0.1c-0.1,0-0.1,0-0.2,0c-0.1,0-0.2,0-0.2,0c-0.1,0-0.1,0.1-0.2,0.1s-0.1,0.1-0.1,0.2
			c0,0.1,0,0.1-0.1,0.2L97.1,54.1L97.1,54.1z"/>
		<path class="st3" d="M99.4,53c0.2,0,0.4,0,0.6,0.1s0.3,0.1,0.4,0.2c0.1,0.1,0.2,0.2,0.2,0.3s0.1,0.3,0.1,0.5v1.6
			c-0.1,0-0.3,0-0.4,0.1c-0.2,0-0.4,0-0.7,0c-0.2,0-0.3,0-0.5,0s-0.3-0.1-0.4-0.2s-0.2-0.2-0.2-0.3s-0.1-0.2-0.1-0.4s0-0.3,0.1-0.4
			s0.2-0.2,0.2-0.3c0.1-0.1,0.2-0.1,0.4-0.1c0.1,0,0.3,0,0.4,0c0.1,0,0.2,0,0.3,0s0.1,0,0.2,0V54c0-0.1,0-0.2-0.1-0.3
			s-0.2-0.1-0.4-0.1c-0.1,0-0.3,0-0.4,0s-0.2,0-0.3,0.1l-0.1-0.6c0,0,0.1,0,0.2,0s0.1,0,0.2,0c0.1,0,0.2,0,0.2,0
			C99.2,53,99.3,53,99.4,53z M99.4,55.2c0.1,0,0.2,0,0.2,0c0.1,0,0.1,0,0.2,0v-0.6c0,0-0.1,0-0.1,0c-0.1,0-0.1,0-0.2,0
			c-0.1,0-0.1,0-0.2,0s-0.1,0-0.2,0c-0.1,0-0.1,0.1-0.1,0.1s0,0.1,0,0.2c0,0.1,0,0.2,0.1,0.2C99.2,55.2,99.3,55.2,99.4,55.2z"/>
		<path class="st3" d="M101.2,52.4l0.8-0.1v0.8h0.9v0.6h-0.9v0.9c0,0.2,0,0.3,0.1,0.4c0.1,0.1,0.2,0.1,0.3,0.1c0.1,0,0.2,0,0.2,0
			c0.1,0,0.2,0,0.2-0.1l0.1,0.6c-0.1,0-0.2,0.1-0.3,0.1s-0.2,0-0.4,0c-0.2,0-0.4,0-0.5-0.1c-0.1-0.1-0.2-0.1-0.3-0.2
			s-0.1-0.2-0.2-0.4s-0.1-0.3-0.1-0.5L101.2,52.4L101.2,52.4z"/>
		<path class="st3" d="M104.3,52.3c0,0.1,0,0.2-0.1,0.3s-0.2,0.1-0.3,0.1s-0.2,0-0.3-0.1c-0.1-0.1-0.1-0.2-0.1-0.3s0-0.2,0.1-0.3
			s0.2-0.1,0.3-0.1s0.2,0,0.3,0.1C104.2,52,104.3,52.2,104.3,52.3z M104.2,55.7h-0.8v-2.7h0.8V55.7z"/>
		<path class="st3" d="M105.7,55.7c-0.2-0.3-0.3-0.7-0.5-1.2s-0.3-1-0.5-1.5h0.8c0,0.1,0.1,0.3,0.1,0.4s0.1,0.3,0.1,0.5
			s0.1,0.3,0.2,0.5c0.1,0.2,0.1,0.3,0.2,0.4c0-0.1,0.1-0.3,0.1-0.4s0.1-0.3,0.2-0.5s0.1-0.3,0.1-0.5s0.1-0.3,0.1-0.4h0.8
			c-0.2,0.5-0.3,1-0.5,1.5s-0.3,0.8-0.5,1.2H105.7z"/>
		<path class="st3" d="M107.6,54.4c0-0.2,0-0.4,0.1-0.6s0.2-0.3,0.3-0.4c0.1-0.1,0.2-0.2,0.4-0.3c0.2-0.1,0.3-0.1,0.5-0.1
			c0.4,0,0.7,0.1,0.9,0.3s0.3,0.6,0.3,1c0,0,0,0.1,0,0.1s0,0.1,0,0.1h-1.7c0,0.2,0.1,0.3,0.2,0.4c0.1,0.1,0.3,0.1,0.5,0.1
			c0.1,0,0.3,0,0.4,0c0.1,0,0.2-0.1,0.3-0.1l0.1,0.6c0,0-0.1,0-0.2,0.1c-0.1,0-0.1,0-0.2,0c-0.1,0-0.2,0-0.3,0s-0.2,0-0.3,0
			c-0.2,0-0.4,0-0.6-0.1s-0.3-0.2-0.4-0.3s-0.2-0.3-0.3-0.4C107.6,54.8,107.6,54.6,107.6,54.4z M109.4,54.1c0-0.1,0-0.1,0-0.2
			s-0.1-0.1-0.1-0.2c0,0-0.1-0.1-0.2-0.1c-0.1,0-0.1,0-0.2,0c-0.1,0-0.2,0-0.2,0c-0.1,0-0.1,0.1-0.2,0.1s-0.1,0.1-0.1,0.2
			c0,0.1,0,0.1-0.1,0.2L109.4,54.1L109.4,54.1z"/>
		<path class="st3" d="M111.4,55.2c0.1,0,0.2,0,0.3,0c0.1,0,0.1-0.1,0.1-0.2c0-0.1,0-0.1-0.1-0.2s-0.2-0.1-0.3-0.2
			c-0.1,0-0.2-0.1-0.3-0.1c-0.1,0-0.2-0.1-0.2-0.2s-0.1-0.1-0.2-0.2s-0.1-0.2-0.1-0.3c0-0.2,0.1-0.5,0.3-0.6s0.4-0.2,0.8-0.2
			c0.2,0,0.3,0,0.5,0s0.3,0.1,0.3,0.1l-0.1,0.6c-0.1,0-0.2-0.1-0.3-0.1c-0.1,0-0.2,0-0.3,0c-0.2,0-0.3,0.1-0.3,0.2c0,0,0,0.1,0,0.1
			c0,0,0,0,0.1,0.1s0.1,0,0.1,0.1c0.1,0,0.1,0,0.2,0.1c0.2,0.1,0.3,0.1,0.4,0.2s0.2,0.1,0.3,0.2s0.1,0.2,0.1,0.2c0,0.1,0,0.2,0,0.3
			c0,0.3-0.1,0.5-0.3,0.6c-0.2,0.1-0.5,0.2-0.8,0.2c-0.2,0-0.4,0-0.6-0.1s-0.3-0.1-0.3-0.1l0.1-0.6c0.1,0,0.3,0.1,0.4,0.1
			S111.3,55.2,111.4,55.2z"/>
	</g>
	<circle class="st4" cx="69.8" cy="37.4" r="3.8"/>
</g>
<g>
	<g>
		<path class="st5" d="M449.4,164.1c-4.5,24.6-16.4,45.5-34,63.1c-4.8,4.8-9,9.9-12.8,15.5c-12,18.3-16.5,38.6-15.5,60.2
			c0.2,3.5-0.8,4.5-4.4,4.5c-16.9-0.2-33.9-0.1-50.9-0.1c-16.6,0-33.2-0.1-49.8,0.1c-4.4,0-6.1-0.8-5.9-5.6
			c0.8-13.3-0.9-26.4-5.2-39.1c-5.6-16.5-16.9-28.9-28.2-41.6c-27.2-30.6-36.8-66.6-27.8-106.5c0.5-2.1,1-4.2,1.6-6.2
			c8,2.4,15.6,6,22.7,10.8c11.8,8,19.2,19.7,26.7,31.4c18.3,28.2,44.6,43.5,78,45.1c54,2.5,98.1-38.3,102.2-89.7
			c0.8,2.5,1.4,5,2,7.5C452.1,129.5,452.6,146.7,449.4,164.1z"/>
		<path class="st5" d="M331.3,325.5c-13.8,0-27.5,0.1-41.3-0.1c-3.4,0-4.7,0.6-4.5,4.3c0.3,7.2,0,14.4,0.1,21.7
			c0.1,7.2,3.6,11.1,10.7,11.1c23.7,0.2,47.4,0.2,71,0c7.1,0,10.6-4,10.7-11.1c0.1-7.4-0.2-14.8,0.1-22.2c0.1-3.3-1.1-3.8-4-3.8
			C359.8,325.6,345.5,325.5,331.3,325.5z"/>
		<path class="st5" d="M305.9,381.2c4.4,11.5,14.3,18.2,26.1,18.1c11.5,0,21.3-6.9,25.6-18.1C340.4,381.2,323.3,381.2,305.9,381.2z"
			/>
	</g>
	<circle class="st5" cx="345.4" cy="86.1" r="63.8"/>
</g>
</svg>
