<?xml version="1.0" encoding="utf-8"?>
<!-- Generator: Adobe Illustrator 26.5.0, SVG Export Plug-In . SVG Version: 6.00 Build 0)  -->
<svg version="1.1" id="Layer_1" xmlns="http://www.w3.org/2000/svg" xmlns:xlink="http://www.w3.org/1999/xlink" x="0px" y="0px"
	 viewBox="0 0 668 413" style="enable-background:new 0 0 668 413;" xml:space="preserve">
<style type="text/css">
	.st0{display:none;fill:#808E38;}
	.st1{display:none;}
	.st2{display:inline;}
	.st3{fill:#FFFFFF;}
	.st4{display:inline;fill:#FFFFFF;}
</style>
<rect x="0.07" y="-0.02" class="st0" width="667.85" height="413.04"/>
<g class="st1">
	<g class="st2">
		<path class="st3" d="M39.43,33.52l3.82-0.62v3.97h4.59v3.18h-4.59v4.74c0,0.8,0.14,1.44,0.42,1.92c0.28,0.48,0.85,0.72,1.7,0.72
			c0.41,0,0.83-0.04,1.27-0.12c0.44-0.08,0.83-0.18,1.19-0.32l0.54,2.97c-0.46,0.19-0.97,0.35-1.54,0.49
			c-0.56,0.14-1.26,0.21-2.08,0.21c-1.04,0-1.91-0.14-2.59-0.42c-0.68-0.28-1.23-0.67-1.64-1.18c-0.41-0.5-0.7-1.11-0.86-1.83
			c-0.16-0.72-0.24-1.51-0.24-2.38V33.52z"/>
		<path class="st3" d="M49.4,50.36V31.09l3.82-0.62v6.46c0.26-0.09,0.58-0.17,0.99-0.24c0.4-0.08,0.79-0.12,1.17-0.12
			c1.09,0,2,0.15,2.73,0.45c0.73,0.3,1.31,0.72,1.74,1.27c0.44,0.55,0.74,1.2,0.92,1.95c0.18,0.75,0.27,1.59,0.27,2.51v7.61h-3.82
			v-7.15c0-1.23-0.16-2.1-0.47-2.61c-0.32-0.51-0.9-0.77-1.76-0.77c-0.34,0-0.66,0.03-0.96,0.09c-0.3,0.06-0.57,0.12-0.81,0.19
			v10.25H49.4z"/>
		<path class="st3" d="M76.59,43.62c0-0.97,0.16-1.89,0.47-2.75c0.32-0.86,0.77-1.61,1.37-2.26c0.6-0.64,1.32-1.15,2.18-1.52
			c0.85-0.38,1.83-0.56,2.92-0.56c0.72,0,1.38,0.06,1.97,0.19c0.6,0.13,1.18,0.31,1.74,0.55l-0.79,3.05
			c-0.36-0.14-0.75-0.26-1.18-0.36c-0.43-0.1-0.91-0.15-1.44-0.15c-1.13,0-1.97,0.35-2.52,1.05c-0.56,0.7-0.83,1.62-0.83,2.77
			c0,1.21,0.26,2.15,0.78,2.82c0.52,0.67,1.43,1,2.73,1c0.46,0,0.96-0.04,1.49-0.13c0.53-0.09,1.02-0.22,1.46-0.41l0.54,3.13
			c-0.44,0.19-1,0.35-1.67,0.49c-0.67,0.14-1.4,0.21-2.2,0.21c-1.23,0-2.29-0.18-3.18-0.55c-0.89-0.37-1.62-0.87-2.19-1.5
			c-0.57-0.63-0.99-1.38-1.26-2.24C76.73,45.56,76.59,44.63,76.59,43.62z"/>
		<path class="st3" d="M88.51,50.36V31.09l3.82-0.62v6.46c0.26-0.09,0.59-0.17,0.99-0.24c0.4-0.08,0.79-0.12,1.17-0.12
			c1.09,0,2,0.15,2.73,0.45c0.73,0.3,1.31,0.72,1.74,1.27c0.44,0.55,0.74,1.2,0.92,1.95c0.18,0.75,0.27,1.59,0.27,2.51v7.61h-3.82
			v-7.15c0-1.23-0.16-2.1-0.47-2.61c-0.32-0.51-0.9-0.77-1.76-0.77c-0.34,0-0.66,0.03-0.96,0.09c-0.3,0.06-0.57,0.12-0.81,0.19
			v10.25H88.51z"/>
		<path class="st3" d="M106.91,36.52c1.13,0,2.07,0.13,2.82,0.38c0.75,0.26,1.35,0.62,1.81,1.1c0.45,0.48,0.77,1.06,0.96,1.74
			c0.19,0.68,0.28,1.44,0.28,2.28v7.94c-0.55,0.12-1.31,0.26-2.28,0.42c-0.97,0.16-2.15,0.24-3.54,0.24c-0.87,0-1.66-0.08-2.37-0.23
			c-0.71-0.15-1.32-0.41-1.83-0.76c-0.51-0.35-0.91-0.81-1.18-1.37c-0.27-0.56-0.41-1.26-0.41-2.08c0-0.79,0.16-1.45,0.47-2
			c0.32-0.55,0.74-0.98,1.27-1.31c0.53-0.32,1.14-0.56,1.82-0.7c0.68-0.14,1.39-0.22,2.13-0.22c0.5,0,0.94,0.02,1.32,0.06
			c0.38,0.04,0.7,0.1,0.94,0.17v-0.36c0-0.65-0.2-1.17-0.59-1.56c-0.39-0.39-1.08-0.59-2.05-0.59c-0.65,0-1.29,0.05-1.92,0.14
			c-0.63,0.09-1.18,0.23-1.64,0.4l-0.49-3.08c0.22-0.07,0.5-0.14,0.83-0.22c0.33-0.08,0.7-0.15,1.09-0.21
			c0.39-0.06,0.81-0.11,1.24-0.15C106.03,36.54,106.46,36.52,106.91,36.52z M107.22,47.7c0.38,0,0.73-0.01,1.08-0.03
			c0.34-0.02,0.62-0.04,0.82-0.08v-2.9c-0.15-0.03-0.38-0.07-0.69-0.1c-0.31-0.03-0.59-0.05-0.85-0.05c-0.36,0-0.7,0.02-1.01,0.06
			c-0.32,0.04-0.59,0.12-0.83,0.24c-0.24,0.12-0.43,0.28-0.56,0.49c-0.14,0.21-0.2,0.46-0.2,0.77c0,0.6,0.2,1.01,0.6,1.24
			C105.97,47.58,106.52,47.7,107.22,47.7z"/>
	</g>
	<g class="st2">
		<path class="st3" d="M75.93,42.02c-0.27,1.44-0.96,2.68-2,3.72c-0.28,0.28-0.53,0.58-0.75,0.91c-0.71,1.08-0.97,2.27-0.91,3.54
			c0.01,0.2-0.05,0.27-0.26,0.26c-0.99-0.01-1.99,0-2.99,0c-0.98,0-1.96-0.01-2.93,0.01c-0.26,0-0.36-0.05-0.34-0.33
			c0.05-0.78-0.05-1.55-0.31-2.3c-0.33-0.97-1-1.7-1.66-2.45c-1.6-1.8-2.16-3.92-1.63-6.26c0.03-0.12,0.06-0.25,0.09-0.37
			c0.47,0.14,0.92,0.35,1.34,0.64c0.69,0.47,1.13,1.16,1.57,1.84c1.08,1.66,2.62,2.56,4.59,2.65c3.18,0.15,5.77-2.26,6.01-5.28
			c0.05,0.15,0.08,0.29,0.12,0.44C76.09,39.99,76.12,41,75.93,42.02z"/>
		<path class="st3" d="M68.98,51.52c-0.81,0-1.62,0.01-2.43,0c-0.2,0-0.28,0.04-0.27,0.25c0.02,0.42,0,0.85,0.01,1.27
			c0.01,0.42,0.21,0.65,0.63,0.66c1.39,0.01,2.79,0.01,4.18,0c0.42,0,0.63-0.23,0.63-0.66c0.01-0.43-0.01-0.87,0.01-1.3
			c0.01-0.19-0.07-0.22-0.24-0.22C70.66,51.53,69.82,51.52,68.98,51.52z"/>
		<path class="st3" d="M67.49,54.79c0.26,0.67,0.84,1.07,1.54,1.07c0.67,0,1.25-0.4,1.5-1.07C69.52,54.79,68.52,54.79,67.49,54.79z"
			/>
	</g>
	<g class="st2">
		<path class="st3" d="M91.66,55.81c-0.57,0-1.01-0.16-1.31-0.48s-0.45-0.77-0.45-1.35c0-0.29,0.05-0.55,0.14-0.78
			c0.09-0.23,0.22-0.42,0.38-0.58c0.16-0.16,0.35-0.28,0.57-0.36s0.46-0.12,0.72-0.12c0.15,0,0.28,0.01,0.41,0.03
			s0.23,0.05,0.32,0.08s0.17,0.06,0.23,0.09c0.06,0.03,0.1,0.05,0.13,0.07l-0.23,0.64c-0.11-0.06-0.23-0.11-0.38-0.15
			c-0.14-0.04-0.31-0.06-0.49-0.06c-0.12,0-0.24,0.02-0.36,0.06s-0.22,0.11-0.31,0.2c-0.09,0.09-0.16,0.21-0.22,0.35
			c-0.05,0.14-0.08,0.31-0.08,0.52c0,0.16,0.02,0.31,0.05,0.45c0.04,0.14,0.09,0.26,0.17,0.36c0.08,0.1,0.18,0.18,0.31,0.24
			c0.13,0.06,0.28,0.09,0.47,0.09c0.12,0,0.22-0.01,0.31-0.02c0.09-0.01,0.17-0.03,0.24-0.05c0.07-0.02,0.13-0.04,0.19-0.06
			c0.05-0.02,0.1-0.05,0.15-0.07l0.22,0.63c-0.11,0.07-0.27,0.13-0.47,0.18C92.16,55.79,91.93,55.81,91.66,55.81z"/>
		<path class="st3" d="M94.9,53.74c-0.07-0.02-0.15-0.03-0.24-0.05s-0.19-0.03-0.29-0.03c-0.05,0-0.1,0-0.17,0.01
			c-0.07,0.01-0.12,0.02-0.15,0.03v2.04h-0.76v-2.53c0.14-0.05,0.29-0.09,0.48-0.13c0.18-0.04,0.39-0.06,0.62-0.06
			c0.04,0,0.09,0,0.15,0.01c0.06,0.01,0.12,0.01,0.17,0.02c0.06,0.01,0.12,0.02,0.17,0.03c0.06,0.01,0.11,0.03,0.15,0.04L94.9,53.74
			z"/>
		<path class="st3" d="M95.31,54.43c0-0.24,0.04-0.44,0.11-0.62c0.07-0.18,0.17-0.33,0.29-0.44c0.12-0.12,0.25-0.21,0.41-0.27
			c0.15-0.06,0.31-0.09,0.47-0.09c0.38,0,0.68,0.12,0.9,0.35s0.33,0.57,0.33,1.02c0,0.04,0,0.09,0,0.14c0,0.05-0.01,0.1-0.01,0.14
			h-1.71c0.02,0.16,0.09,0.28,0.22,0.37c0.13,0.09,0.3,0.14,0.52,0.14c0.14,0,0.27-0.01,0.41-0.04c0.13-0.03,0.24-0.06,0.33-0.09
			l0.1,0.61c-0.04,0.02-0.09,0.04-0.16,0.06c-0.07,0.02-0.14,0.04-0.23,0.05c-0.08,0.02-0.17,0.03-0.27,0.04s-0.19,0.02-0.28,0.02
			c-0.24,0-0.45-0.04-0.63-0.11c-0.18-0.07-0.32-0.17-0.44-0.29s-0.2-0.27-0.26-0.44C95.34,54.81,95.31,54.62,95.31,54.43z
			 M97.08,54.14c0-0.06-0.01-0.13-0.03-0.19s-0.05-0.11-0.09-0.16c-0.04-0.05-0.09-0.09-0.15-0.12c-0.06-0.03-0.13-0.05-0.22-0.05
			c-0.08,0-0.16,0.01-0.22,0.04c-0.06,0.03-0.11,0.07-0.15,0.11s-0.07,0.1-0.09,0.17c-0.02,0.06-0.04,0.13-0.05,0.19H97.08z"/>
		<path class="st3" d="M99.36,53c0.22,0,0.41,0.03,0.56,0.08s0.27,0.12,0.36,0.22c0.09,0.09,0.15,0.21,0.19,0.34
			s0.06,0.29,0.06,0.45v1.57c-0.11,0.02-0.26,0.05-0.45,0.08c-0.19,0.03-0.43,0.05-0.7,0.05c-0.17,0-0.33-0.02-0.47-0.05
			c-0.14-0.03-0.26-0.08-0.36-0.15c-0.1-0.07-0.18-0.16-0.23-0.27c-0.05-0.11-0.08-0.25-0.08-0.41c0-0.16,0.03-0.29,0.09-0.4
			s0.15-0.19,0.25-0.26c0.1-0.06,0.22-0.11,0.36-0.14c0.13-0.03,0.28-0.04,0.42-0.04c0.1,0,0.19,0,0.26,0.01s0.14,0.02,0.19,0.03
			v-0.07c0-0.13-0.04-0.23-0.12-0.31c-0.08-0.08-0.21-0.12-0.41-0.12c-0.13,0-0.26,0.01-0.38,0.03s-0.23,0.04-0.32,0.08l-0.1-0.61
			c0.04-0.01,0.1-0.03,0.16-0.04s0.14-0.03,0.22-0.04c0.08-0.01,0.16-0.02,0.25-0.03C99.18,53.01,99.27,53,99.36,53z M99.42,55.21
			c0.07,0,0.15,0,0.21-0.01c0.07,0,0.12-0.01,0.16-0.02v-0.57c-0.03-0.01-0.08-0.01-0.14-0.02c-0.06-0.01-0.12-0.01-0.17-0.01
			c-0.07,0-0.14,0-0.2,0.01s-0.12,0.02-0.16,0.05c-0.05,0.02-0.08,0.06-0.11,0.1s-0.04,0.09-0.04,0.15c0,0.12,0.04,0.2,0.12,0.25
			C99.17,55.19,99.28,55.21,99.42,55.21z"/>
		<path class="st3" d="M101.18,52.41l0.76-0.12v0.79h0.91v0.63h-0.91v0.94c0,0.16,0.03,0.29,0.08,0.38
			c0.06,0.09,0.17,0.14,0.34,0.14c0.08,0,0.17-0.01,0.25-0.02c0.09-0.02,0.16-0.04,0.24-0.06l0.11,0.59
			c-0.09,0.04-0.19,0.07-0.3,0.1c-0.11,0.03-0.25,0.04-0.41,0.04c-0.21,0-0.38-0.03-0.51-0.08c-0.14-0.06-0.24-0.13-0.32-0.23
			c-0.08-0.1-0.14-0.22-0.17-0.36s-0.05-0.3-0.05-0.47V52.41z"/>
		<path class="st3" d="M104.28,52.3c0,0.14-0.04,0.25-0.13,0.33c-0.09,0.08-0.2,0.12-0.32,0.12s-0.23-0.04-0.32-0.12
			c-0.09-0.08-0.13-0.19-0.13-0.33s0.04-0.25,0.13-0.33c0.09-0.08,0.2-0.12,0.32-0.12s0.23,0.04,0.32,0.12
			C104.24,52.05,104.28,52.16,104.28,52.3z M104.21,55.74h-0.76v-2.67h0.76V55.74z"/>
		<path class="st3" d="M105.65,55.74c-0.17-0.34-0.35-0.73-0.53-1.19s-0.35-0.95-0.51-1.48h0.8c0.03,0.13,0.07,0.27,0.12,0.43
			s0.09,0.31,0.14,0.47c0.05,0.16,0.1,0.31,0.15,0.46c0.05,0.15,0.1,0.28,0.15,0.41c0.04-0.12,0.09-0.26,0.14-0.41
			c0.05-0.15,0.1-0.3,0.15-0.46s0.1-0.31,0.14-0.47s0.09-0.3,0.12-0.43h0.78c-0.16,0.53-0.33,1.03-0.51,1.48
			c-0.18,0.45-0.35,0.85-0.53,1.19H105.65z"/>
		<path class="st3" d="M107.58,54.43c0-0.24,0.04-0.44,0.11-0.62c0.07-0.18,0.17-0.33,0.29-0.44c0.12-0.12,0.25-0.21,0.41-0.27
			c0.15-0.06,0.31-0.09,0.47-0.09c0.38,0,0.68,0.12,0.9,0.35s0.33,0.57,0.33,1.02c0,0.04,0,0.09,0,0.14c0,0.05-0.01,0.1-0.01,0.14
			h-1.71c0.02,0.16,0.09,0.28,0.22,0.37c0.13,0.09,0.3,0.14,0.52,0.14c0.14,0,0.27-0.01,0.41-0.04c0.13-0.03,0.24-0.06,0.33-0.09
			l0.1,0.61c-0.04,0.02-0.09,0.04-0.16,0.06c-0.07,0.02-0.14,0.04-0.23,0.05c-0.08,0.02-0.17,0.03-0.27,0.04s-0.19,0.02-0.28,0.02
			c-0.24,0-0.45-0.04-0.63-0.11c-0.18-0.07-0.32-0.17-0.44-0.29s-0.2-0.27-0.26-0.44C107.61,54.81,107.58,54.62,107.58,54.43z
			 M109.36,54.14c0-0.06-0.01-0.13-0.03-0.19s-0.05-0.11-0.09-0.16c-0.04-0.05-0.09-0.09-0.15-0.12c-0.06-0.03-0.13-0.05-0.22-0.05
			c-0.08,0-0.16,0.01-0.22,0.04c-0.06,0.03-0.11,0.07-0.15,0.11s-0.07,0.1-0.09,0.17c-0.02,0.06-0.04,0.13-0.05,0.19H109.36z"/>
		<path class="st3" d="M111.44,55.2c0.14,0,0.24-0.01,0.29-0.04c0.06-0.03,0.09-0.08,0.09-0.16c0-0.06-0.04-0.11-0.11-0.16
			c-0.07-0.05-0.19-0.1-0.34-0.15c-0.12-0.04-0.23-0.09-0.32-0.14c-0.1-0.05-0.18-0.1-0.25-0.17c-0.07-0.07-0.12-0.14-0.16-0.24
			s-0.06-0.2-0.06-0.33c0-0.25,0.09-0.45,0.28-0.59s0.44-0.22,0.77-0.22c0.16,0,0.32,0.01,0.47,0.04s0.27,0.06,0.35,0.09l-0.13,0.59
			c-0.09-0.03-0.18-0.06-0.29-0.08c-0.1-0.02-0.22-0.04-0.35-0.04c-0.24,0-0.35,0.07-0.35,0.2c0,0.03,0,0.06,0.02,0.08
			c0.01,0.02,0.03,0.05,0.06,0.07c0.03,0.02,0.07,0.05,0.12,0.07c0.05,0.03,0.12,0.05,0.2,0.08c0.17,0.06,0.3,0.12,0.41,0.18
			c0.11,0.06,0.19,0.12,0.26,0.19s0.11,0.15,0.13,0.23c0.03,0.08,0.04,0.18,0.04,0.29c0,0.26-0.1,0.46-0.3,0.6
			c-0.2,0.13-0.48,0.2-0.84,0.2c-0.24,0-0.43-0.02-0.59-0.06s-0.27-0.07-0.33-0.1l0.13-0.61c0.13,0.05,0.26,0.09,0.4,0.12
			S111.31,55.2,111.44,55.2z"/>
	</g>
	<circle class="st4" cx="69.81" cy="37.44" r="3.76"/>
</g>
<g>
	<g>
		<path class="st3" d="M449.43,164.09c-4.52,24.55-16.37,45.49-33.98,63.15c-4.75,4.75-9.05,9.87-12.75,15.5
			c-12.03,18.3-16.48,38.61-15.5,60.25c0.18,3.47-0.77,4.55-4.4,4.47c-16.91-0.18-33.9-0.08-50.87-0.08
			c-16.6,0-33.23-0.15-49.84,0.13c-4.42,0.05-6.12-0.82-5.86-5.65c0.77-13.31-0.85-26.37-5.19-39.12
			c-5.65-16.48-16.94-28.89-28.25-41.61c-27.24-30.64-36.75-66.57-27.76-106.46c0.49-2.11,1-4.19,1.59-6.25
			c8.04,2.42,15.63,5.99,22.7,10.79c11.8,8.04,19.17,19.66,26.73,31.36c18.27,28.17,44.57,43.51,78.03,45.06
			c54,2.52,98.06-38.35,102.19-89.73c0.77,2.47,1.44,4.99,2.03,7.51C452.11,129.49,452.65,146.66,449.43,164.09z"/>
		<path class="st3" d="M331.27,325.55c-13.77,0-27.55,0.1-41.32-0.08c-3.36-0.04-4.71,0.6-4.55,4.32
			c0.31,7.21,0.01,14.44,0.11,21.66c0.1,7.17,3.59,11.1,10.73,11.15c23.68,0.18,47.37,0.18,71.05,0
			c7.14-0.05,10.63-3.98,10.73-11.15c0.1-7.39-0.16-14.79,0.11-22.17c0.12-3.31-1.12-3.82-4.04-3.8
			C359.83,325.62,345.55,325.55,331.27,325.55z"/>
		<path class="st3" d="M305.93,381.18c4.44,11.46,14.29,18.17,26.12,18.12c11.47-0.05,21.26-6.88,25.56-18.12
			C340.4,381.18,323.34,381.18,305.93,381.18z"/>
	</g>
	<circle class="st3" cx="345.42" cy="86.13" r="63.84"/>
</g>
</svg>
